<?xml version="1.0" encoding="UTF-8"?>
<svg width="320px" height="320.003736px" viewBox="0 0 320 320.003736" version="1.1"
    xmlns="http://www.w3.org/2000/svg" xmlns:xlink="http://www.w3.org/1999/xlink">
    <title>Logo</title>
    <defs>
        <linearGradient x1="50%" y1="4.32183185e-05%" x2="50%" y2="99.9999568%"
            id="linearGradient-1">
            <stop stop-color="#FE9D02" offset="0%"></stop>
            <stop stop-color="#F7701D" offset="100%"></stop>
        </linearGradient>
        <filter x="-0.6%" y="-0.6%" width="102.2%" height="102.5%" filterUnits="objectBoundingBox"
            id="filter-2">
            <feOffset dx="1" dy="1" in="SourceAlpha" result="shadowOffsetOuter1"></feOffset>
            <feGaussianBlur stdDeviation="0.5" in="shadowOffsetOuter1"
                result="shadowBlurOuter1"></feGaussianBlur>
            <feColorMatrix values="0 0 0 0 0   0 0 0 0 0   0 0 0 0 0  0 0 0 0.65 0" type="matrix"
                in="shadowBlurOuter1" result="shadowMatrixOuter1"></feColorMatrix>
            <feMerge>
                <feMergeNode in="shadowMatrixOuter1"></feMergeNode>
                <feMergeNode in="SourceGraphic"></feMergeNode>
            </feMerge>
        </filter>
    </defs>
    <g id="Page-1" stroke="none" stroke-width="1" fill="none" fill-rule="evenodd">
        <g id="Logo" transform="translate(0, 0)" fill-rule="nonzero">
            <path
                d="M0,0 L320,0 C320,0 320,69.3359984 320,69.3359984 L320,250.667729 C320,250.667729 320,320.003736 320,320.003736 L0,320.003736 C0,320.003736 0,250.667729 0,250.667729 L0,69.3359984 C0,69.3359984 0,0 0,0 Z"
                id="background" fill="url(#linearGradient-1)"></path>
            <g id="JB" filter="url(#filter-2)" transform="translate(70, 81)" fill="#FFFFFF">
                <path
                    d="M127.357854,0 C156.621532,0 171.01258,20.2509985 171.01258,45.1432917 C171.01258,56.2880418 162.94727,71.670346 147.506169,74.2042857 C165.702005,78.027203 180,91.1653079 180,112.856501 C180,145.572935 156.621532,157.997223 138.271536,158 C137.640817,157.999981 137.0142,157.999963 136.391687,157.999945 L105.351347,157.999018 C104.884726,157.999003 104.422207,157.998989 103.963791,157.998975 L73.7829602,157.998002 C73.570691,157.997995 73.3625243,157.997987 73.15846,157.99798 L72.129321,157.997655 C72.388346,157.997658 72.6452321,157.98785 72.8999791,157.96823 L72.898486,157.997655 C93.3927961,157.997655 100.565943,133.66781 100.565793,133.66781 L100.571321,131.577 L132.418557,131.577054 C142.578511,131.577054 150.859296,123.901694 151.036203,112.445752 L151.039091,112.070854 C151.039091,100.407776 142.688945,92.5646533 132.418557,92.5646533 L103.955,92.5646533 L103.954321,65.435 L100.776321,65.435 L100.776321,65.425 L103.955,65.4259438 L103.954321,65.435 L125.227178,65.4355708 C136.163949,65.4355708 145.076751,57.1863992 145.257506,44.87633 L145.260304,44.494316 C145.260304,31.9731955 136.2767,23.5530611 125.227178,23.5530611 L95.335321,23.553 L95.3527523,24.2685032 C95.353228,24.2899558 95.353703,24.3114059 95.3541775,24.3328533 L95.177321,24.332 L95.1774892,23.5530611 L95.335321,23.553 L95.2848532,21.3455393 C95.1421661,15.4680117 94.9581464,9.40088589 94.732794,3.14416187 L94.6166735,0 Z"
                    id="Combined-Shape"></path>
                <g id="J">
                    <path
                        d="M68.0128874,0 L98.1899643,0 C98.5377259,48.1137846 98.7985471,84.1991231 98.9724279,108.256015 C98.978555,109.103722 98.9877457,110.375282 99,112.070695 C99,131.133042 92.0279027,158 54.2825083,158 C43.5076945,158 34.461093,155.101843 27.0340453,150.433021 C57.2401884,146.413734 68.0128874,132.420827 68.0128874,116.367721 L68.0128874,0 Z M30.127612,99.7656172 C30.127612,113.172135 34.2941225,126.544027 47.5334401,126.544027 C55.437722,126.544027 61.2036179,123.667801 64.5670439,118.49671 C63.5762978,130.417657 53.9855242,144.848847 22.6738109,147.348231 C7.11712665,135.059706 0,114.63968 0,99.773491 L30.127612,99.7656172 Z"
                        id="Combined-Shape"></path>
                </g>
            </g>
        </g>
    </g>
</svg>